<?xml version="1.0" encoding="utf-8"?>
<!-- Generator: Adobe Illustrator 22.1.0, SVG Export Plug-In . SVG Version: 6.00 Build 0)  -->
<svg version="1.1" id="Capa_1" xmlns="http://www.w3.org/2000/svg" xmlns:xlink="http://www.w3.org/1999/xlink" x="0px" y="0px"
	 viewBox="0 0 482.5 482.5" style="enable-background:new 0 0 482.5 482.5;" xml:space="preserve">
<style type="text/css">
	.st0{fill:#006DFF;}
	.st1{fill:#FFFFFF;}
</style>
<circle class="st0" cx="240" cy="240" r="236.7"/>
<g>
	<g>
		<path class="st1" d="M365.8,126.7h-9.9v-22c0-31.3-25.5-56.7-56.7-56.7H180c-31.3,0-56.7,25.5-56.7,56.7v22h-9
			c-31.3,0-56.7,25.5-56.7,56.7V275c0,31.3,25.5,56.7,56.7,56.7h8.9v71.9c0,15.6,12.7,28.3,28.3,28.3h176
			c15.6,0,28.3-12.7,28.3-28.3v-71.9h9.9c31.3,0,56.7-25.5,56.7-56.7v-91.5C422.5,152.2,397,126.7,365.8,126.7z M144.7,104.7
			c0-19.4,15.8-35.3,35.3-35.3H299c19.4,0,35.3,15.8,35.3,35.3v22H144.7V104.7z M334.4,403.8c0,3.7-3.1,6.8-6.8,6.8h-176
			c-3.7,0-6.8-3.1-6.8-6.8V285.2h189.7L334.4,403.8L334.4,403.8z M401,275c0,19.4-15.8,35.3-35.3,35.3h-9.9v-25.1h14.2
			c6,0,10.7-4.8,10.7-10.7c0-6-4.8-10.7-10.7-10.7H107.4c-6,0-10.7,4.8-10.7,10.7c0,6,4.8,10.7,10.7,10.7h15.8v25.1h-9
			C94.9,310.3,79,294.5,79,275v-91.5c0-19.4,15.8-35.3,35.3-35.3h251.5c19.4,0,35.3,15.8,35.3,35.3V275z"/>
		<path class="st1" d="M170.7,338h136.8c6,0,10.7-4.8,10.7-10.7c0-6-4.8-10.7-10.7-10.7H170.7c-6,0-10.7,4.8-10.7,10.7
			C160,333.2,164.9,338,170.7,338z"/>
		<path class="st1" d="M308.4,360.4H171.5c-6,0-10.7,4.8-10.7,10.7s4.8,10.7,10.7,10.7h136.8c6,0,10.7-4.8,10.7-10.7
			S314.3,360.4,308.4,360.4z"/>
		<path class="st1" d="M365.6,168.9h-21.8c-6,0-10.7,4.8-10.7,10.7s4.8,10.7,10.7,10.7h21.8c6,0,10.7-4.8,10.7-10.7
			S371.6,168.9,365.6,168.9z"/>
	</g>
</g>
</svg>
