<?xml version="1.0" encoding="utf-8"?>
<!-- Generator: Adobe Illustrator 21.1.0, SVG Export Plug-In . SVG Version: 6.00 Build 0)  -->
<svg version="1.1" id="Capa_1" xmlns="http://www.w3.org/2000/svg" xmlns:xlink="http://www.w3.org/1999/xlink" x="0px" y="0px"
	 viewBox="0 0 85 85" style="enable-background:new 0 0 85 85;" xml:space="preserve">
<style type="text/css">
	.st0{fill:#006DFF;}
	.st1{fill:none;stroke:#FFFFFF;stroke-width:1.5729;stroke-miterlimit:10;}
	.st2{fill:#FFFFFF;}
</style>
<g>
	<rect class="st0" width="85" height="85"/>
	<g>
		<g>
			<g>
				<path class="st1" d="M47.7,20.3"/>
				<path class="st1" d="M37.9,20.3"/>
				<polyline class="st1" points="37.9,30.3 33.1,30.3 33.1,20.3 51.9,20.3 51.9,30.3 47.7,30.3 				"/>
			</g>
			<rect x="37.6" y="28.3" class="st1" width="9.8" height="6.2"/>
			<polyline class="st1" points="37.6,20.8 37.6,16.7 47.4,16.7 47.4,20.8 			"/>
			<rect x="46.6" y="23.7" class="st2" width="1.6" height="1.6"/>
			<line class="st1" x1="40.4" y1="31.3" x2="44.6" y2="31.3"/>
		</g>
		<g>
			<path class="st2" d="M24.2,47.6h-0.8v-6.3h0.8V47.6z"/>
			<path class="st2" d="M32,47.6h-0.7v-2.9c0-0.3,0-0.5-0.1-0.7c0-0.2-0.1-0.3-0.3-0.4c-0.2-0.1-0.3-0.2-0.5-0.2
				c-0.3,0-0.5,0.1-0.8,0.4c-0.3,0.3-0.4,0.6-0.4,1.2v2.6h-0.7v-3.1c0-0.4-0.1-0.7-0.3-0.9s-0.4-0.3-0.6-0.3c-0.3,0-0.6,0.1-0.8,0.4
				c-0.2,0.3-0.3,0.6-0.3,1v2.8h-0.7v-4.7h0.6v0.9c0.3-0.7,0.8-1,1.4-1c0.3,0,0.6,0.1,0.9,0.3c0.2,0.2,0.4,0.5,0.5,0.8
				c0.3-0.7,0.8-1.1,1.5-1.1c0.3,0,0.6,0.1,0.8,0.3c0.2,0.2,0.4,0.4,0.5,0.6c0.1,0.2,0.1,0.6,0.1,1V47.6z"/>
			<path class="st2" d="M34.1,49.2h-0.7v-6.3H34v0.9c0.3-0.7,0.8-1,1.5-1c0.6,0,1,0.2,1.3,0.7c0.3,0.5,0.5,1,0.5,1.8
				c0,0.8-0.2,1.4-0.5,1.8c-0.3,0.4-0.8,0.7-1.3,0.7c-0.6,0-1-0.3-1.4-0.8V49.2z M34.1,44.6v1.3c0,0.4,0.2,0.6,0.4,0.9
				c0.3,0.2,0.5,0.3,0.8,0.3c0.3,0,0.6-0.1,0.8-0.4c0.2-0.3,0.4-0.8,0.4-1.4c0-0.6-0.1-1-0.3-1.4s-0.5-0.5-0.9-0.5
				c-0.3,0-0.6,0.1-0.8,0.3C34.3,44,34.1,44.3,34.1,44.6z"/>
			<path class="st2" d="M39.1,47.6h-0.7v-4.7H39V44c0.2-0.5,0.5-0.9,0.7-1s0.5-0.2,0.7-0.2c0.1,0,0.2,0,0.3,0v0.7h-0.1
				c-0.4,0-0.7,0.1-1,0.4c-0.3,0.3-0.4,0.7-0.4,1.2V47.6z"/>
			<path class="st2" d="M44.6,46.2l0.7,0.1c-0.1,0.4-0.4,0.7-0.7,1c-0.4,0.3-0.8,0.4-1.3,0.4c-0.6,0-1.2-0.2-1.6-0.7
				c-0.4-0.5-0.6-1-0.6-1.8c0-0.7,0.2-1.3,0.6-1.8c0.4-0.5,0.9-0.7,1.5-0.7c0.6,0,1.1,0.2,1.5,0.6c0.4,0.4,0.6,1.1,0.6,1.9H42
				c0,0.7,0.1,1.2,0.4,1.4c0.3,0.2,0.6,0.4,0.9,0.4C44,47.1,44.4,46.8,44.6,46.2z M44.6,44.8c0-0.3,0-0.5-0.1-0.7
				c-0.1-0.2-0.2-0.4-0.4-0.5c-0.2-0.1-0.4-0.2-0.7-0.2c-0.4,0-0.7,0.1-0.9,0.4s-0.4,0.6-0.4,1H44.6z"/>
			<path class="st2" d="M45.8,46.4l0.7-0.1c0.2,0.6,0.6,0.9,1.5,0.9c0.3,0,0.6-0.1,0.8-0.2c0.2-0.1,0.3-0.3,0.3-0.6
				c0-0.4-0.3-0.6-0.8-0.7l-1-0.2c-0.4-0.1-0.7-0.2-0.9-0.4c-0.2-0.2-0.3-0.5-0.3-0.9c0-0.4,0.2-0.7,0.5-1c0.3-0.3,0.7-0.4,1.3-0.4
				c1,0,1.6,0.4,1.9,1.2L49,44.1c-0.2-0.5-0.6-0.7-1.2-0.7c-0.3,0-0.5,0.1-0.7,0.2s-0.3,0.3-0.3,0.5c0,0.3,0.2,0.6,0.7,0.7l0.9,0.2
				c1,0.2,1.4,0.6,1.4,1.4c0,0.4-0.2,0.8-0.5,1s-0.8,0.4-1.4,0.4C46.8,47.7,46.1,47.3,45.8,46.4z"/>
			<path class="st2" d="M51.6,41.3v0.8h-0.8v-0.8H51.6z M51.6,42.9v4.7h-0.7v-4.7H51.6z"/>
			<path class="st2" d="M54.7,47.7c-0.6,0-1.1-0.2-1.5-0.7c-0.4-0.5-0.5-1.1-0.5-1.8c0-0.7,0.2-1.3,0.6-1.8c0.4-0.4,0.9-0.7,1.5-0.7
				c0.6,0,1.2,0.2,1.5,0.7s0.6,1.1,0.6,1.8c0,0.7-0.2,1.3-0.6,1.8S55.4,47.7,54.7,47.7z M54.8,47.1c0.4,0,0.7-0.2,0.9-0.5
				c0.3-0.3,0.4-0.8,0.4-1.4c0-0.6-0.1-1.1-0.4-1.4s-0.6-0.4-0.9-0.4c-0.4,0-0.7,0.1-0.9,0.4c-0.3,0.3-0.4,0.8-0.4,1.4
				c0,0.7,0.1,1.2,0.4,1.5C54.1,47,54.4,47.1,54.8,47.1z M56.2,41.3l-1.9,0.9l-0.2-0.4l1.8-1.1L56.2,41.3z"/>
			<path class="st2" d="M61.7,47.6H61v-3c0-0.4-0.1-0.7-0.3-0.9c-0.2-0.2-0.4-0.3-0.7-0.3c-0.4,0-0.7,0.1-0.9,0.4s-0.4,0.7-0.4,1.2
				v2.6H58v-4.7h0.7v0.9c0.4-0.7,0.9-1,1.5-1c0.3,0,0.6,0.1,0.9,0.3c0.2,0.2,0.4,0.4,0.5,0.6c0.1,0.2,0.1,0.6,0.1,1.2V47.6z"/>
			<path class="st2" d="M29,57.6h-0.7v-2.9c0-0.3,0-0.5-0.1-0.7c0-0.2-0.1-0.3-0.3-0.4c-0.2-0.1-0.3-0.2-0.5-0.2
				c-0.3,0-0.5,0.1-0.8,0.4c-0.3,0.3-0.4,0.6-0.4,1.2v2.6h-0.7v-3.1c0-0.4-0.1-0.7-0.3-0.9s-0.4-0.3-0.6-0.3c-0.3,0-0.6,0.1-0.8,0.4
				c-0.2,0.3-0.3,0.6-0.3,1v2.8h-0.7v-4.7h0.6v0.9c0.3-0.7,0.8-1,1.4-1c0.3,0,0.6,0.1,0.9,0.3c0.2,0.2,0.4,0.5,0.5,0.8
				c0.3-0.7,0.8-1.1,1.5-1.1c0.3,0,0.6,0.1,0.8,0.3c0.2,0.2,0.4,0.4,0.5,0.6c0.1,0.2,0.1,0.6,0.1,1V57.6z"/>
			<path class="st2" d="M34.1,57.6h-0.7c0-0.1-0.1-0.4-0.1-0.8c-0.3,0.6-0.9,1-1.6,1c-0.5,0-0.9-0.1-1.2-0.4c-0.3-0.3-0.4-0.6-0.4-1
				c0-0.5,0.2-0.9,0.6-1.2c0.4-0.3,1.1-0.5,2.1-0.5c0.1,0,0.3,0,0.6,0c0-0.4,0-0.6-0.1-0.8c-0.1-0.2-0.2-0.3-0.4-0.4
				s-0.4-0.1-0.7-0.1c-0.7,0-1.2,0.3-1.3,0.8l-0.7-0.1c0.2-0.9,0.9-1.3,2.1-1.3c0.6,0,1.1,0.1,1.4,0.4c0.3,0.3,0.4,0.8,0.4,1.5v2
				C34,57,34.1,57.3,34.1,57.6z M33.3,55.3c-0.3,0-0.5,0-0.7,0c-0.6,0-1,0.1-1.3,0.3c-0.3,0.2-0.5,0.5-0.5,0.8
				c0,0.2,0.1,0.4,0.3,0.6c0.2,0.2,0.4,0.2,0.7,0.2c0.4,0,0.8-0.2,1.1-0.5s0.4-0.7,0.4-1.1C33.3,55.5,33.3,55.4,33.3,55.3z"/>
			<path class="st2" d="M34.9,56.4l0.7-0.1c0.2,0.6,0.6,0.9,1.5,0.9c0.3,0,0.6-0.1,0.8-0.2c0.2-0.1,0.3-0.3,0.3-0.6
				c0-0.4-0.3-0.6-0.8-0.7l-1-0.2c-0.4-0.1-0.7-0.2-0.9-0.4c-0.2-0.2-0.3-0.5-0.3-0.9c0-0.4,0.2-0.7,0.5-1c0.3-0.3,0.7-0.4,1.3-0.4
				c1,0,1.6,0.4,1.9,1.2L38,54.1c-0.2-0.5-0.6-0.7-1.2-0.7c-0.3,0-0.5,0.1-0.7,0.2s-0.3,0.3-0.3,0.5c0,0.3,0.2,0.6,0.7,0.7l0.9,0.2
				c1,0.2,1.4,0.6,1.4,1.4c0,0.4-0.2,0.8-0.5,1s-0.8,0.4-1.4,0.4C35.8,57.7,35.1,57.3,34.9,56.4z"/>
			<path class="st2" d="M40.6,51.3v0.8h-0.8v-0.8H40.6z M40.6,52.9v4.7h-0.7v-4.7H40.6z"/>
			<path class="st2" d="M45.5,52.9l-1.6,4.7h-0.8l-1.7-4.7h0.8l1.3,3.8l1.3-3.8H45.5z"/>
			<path class="st2" d="M49.9,57.6h-0.7c0-0.1-0.1-0.4-0.1-0.8c-0.3,0.6-0.9,1-1.6,1c-0.5,0-0.9-0.1-1.2-0.4c-0.3-0.3-0.4-0.6-0.4-1
				c0-0.5,0.2-0.9,0.6-1.2c0.4-0.3,1.1-0.5,2-0.5c0.1,0,0.3,0,0.6,0c0-0.4,0-0.6-0.1-0.8c-0.1-0.2-0.2-0.3-0.4-0.4s-0.4-0.1-0.7-0.1
				c-0.7,0-1.2,0.3-1.3,0.8L46,54.1c0.2-0.9,0.9-1.3,2.1-1.3c0.6,0,1.1,0.1,1.4,0.4s0.4,0.8,0.4,1.5v2C49.8,57,49.9,57.3,49.9,57.6z
				 M49.1,55.3c-0.3,0-0.5,0-0.7,0c-0.6,0-1,0.1-1.3,0.3c-0.3,0.2-0.5,0.5-0.5,0.8c0,0.2,0.1,0.4,0.3,0.6s0.4,0.2,0.7,0.2
				c0.4,0,0.8-0.2,1.1-0.5c0.3-0.3,0.4-0.7,0.4-1.1C49.1,55.5,49.1,55.4,49.1,55.3z"/>
			<path class="st2" d="M57.3,51.3v6.3h-0.7v-0.8c-0.3,0.6-0.8,0.9-1.5,0.9c-0.5,0-1-0.2-1.4-0.7c-0.4-0.5-0.5-1-0.5-1.7
				c0-0.7,0.2-1.3,0.5-1.8s0.8-0.7,1.4-0.7c0.6,0,1,0.3,1.4,0.8v-2.3H57.3z M56.6,54.7c0-0.4-0.1-0.7-0.4-1
				c-0.3-0.2-0.5-0.4-0.9-0.4c-0.4,0-0.7,0.2-0.9,0.5c-0.2,0.3-0.4,0.8-0.4,1.4c0,0.6,0.1,1.1,0.3,1.4s0.5,0.5,0.9,0.5
				c0.3,0,0.6-0.1,0.9-0.4c0.3-0.3,0.4-0.6,0.4-1V54.7z"/>
			<path class="st2" d="M61.9,56.2l0.7,0.1c-0.1,0.4-0.4,0.7-0.7,1c-0.4,0.3-0.8,0.4-1.3,0.4c-0.6,0-1.2-0.2-1.6-0.7
				c-0.4-0.5-0.6-1-0.6-1.8c0-0.7,0.2-1.3,0.6-1.8c0.4-0.5,0.9-0.7,1.5-0.7c0.6,0,1.1,0.2,1.5,0.6c0.4,0.4,0.6,1.1,0.6,1.9h-3.4
				c0,0.7,0.1,1.2,0.4,1.4c0.3,0.2,0.6,0.4,0.9,0.4C61.2,57.1,61.6,56.8,61.9,56.2z M61.8,54.8c0-0.3,0-0.5-0.1-0.7
				s-0.2-0.4-0.4-0.5c-0.2-0.1-0.4-0.2-0.7-0.2c-0.4,0-0.7,0.1-0.9,0.4s-0.4,0.6-0.4,1H61.8z"/>
			<path class="st2" d="M17.3,66l0.7,0.1c-0.1,0.5-0.3,0.9-0.6,1.2c-0.3,0.3-0.7,0.4-1.2,0.4c-0.6,0-1.1-0.2-1.5-0.7
				s-0.5-1.1-0.5-1.7c0-0.7,0.2-1.3,0.5-1.8c0.4-0.5,0.8-0.7,1.5-0.7c0.5,0,0.9,0.2,1.2,0.5c0.3,0.3,0.5,0.7,0.6,1.2l-0.7,0.1
				c-0.1-0.8-0.5-1.2-1.1-1.2c-0.4,0-0.7,0.2-0.9,0.5c-0.2,0.3-0.3,0.8-0.3,1.3c0,0.6,0.1,1.1,0.3,1.4s0.5,0.5,0.9,0.5
				C16.8,67.1,17.2,66.7,17.3,66z"/>
			<path class="st2" d="M20.6,67.7c-0.6,0-1.1-0.2-1.5-0.7c-0.4-0.5-0.5-1.1-0.5-1.8c0-0.7,0.2-1.3,0.6-1.8c0.4-0.4,0.9-0.7,1.5-0.7
				c0.6,0,1.2,0.2,1.5,0.7s0.6,1.1,0.6,1.8c0,0.7-0.2,1.3-0.6,1.8S21.3,67.7,20.6,67.7z M20.7,67.1c0.4,0,0.7-0.2,0.9-0.5
				c0.3-0.3,0.4-0.8,0.4-1.4c0-0.6-0.1-1.1-0.4-1.4c-0.3-0.3-0.6-0.4-0.9-0.4c-0.4,0-0.7,0.1-0.9,0.4c-0.3,0.3-0.4,0.8-0.4,1.4
				c0,0.7,0.1,1.2,0.4,1.5C20,67,20.3,67.1,20.7,67.1z"/>
			<path class="st2" d="M30.2,67.6h-0.7v-2.9c0-0.3,0-0.5-0.1-0.7c0-0.2-0.1-0.3-0.3-0.4c-0.2-0.1-0.3-0.2-0.5-0.2
				c-0.3,0-0.5,0.1-0.8,0.4c-0.3,0.3-0.4,0.6-0.4,1.2v2.6h-0.7v-3.1c0-0.4-0.1-0.7-0.3-0.9s-0.4-0.3-0.6-0.3c-0.3,0-0.6,0.1-0.8,0.4
				c-0.2,0.3-0.3,0.6-0.3,1v2.8h-0.7v-4.7h0.6v0.9c0.3-0.7,0.8-1,1.4-1c0.3,0,0.6,0.1,0.9,0.3c0.2,0.2,0.4,0.5,0.5,0.8
				c0.3-0.7,0.8-1.1,1.5-1.1c0.3,0,0.6,0.1,0.8,0.3c0.2,0.2,0.4,0.4,0.5,0.6c0.1,0.2,0.1,0.6,0.1,1V67.6z"/>
			<path class="st2" d="M32.3,69.2h-0.7v-6.3h0.7v0.9c0.3-0.7,0.8-1,1.5-1c0.6,0,1,0.2,1.3,0.7c0.3,0.5,0.5,1,0.5,1.8
				c0,0.8-0.2,1.4-0.5,1.8c-0.3,0.4-0.8,0.7-1.3,0.7c-0.6,0-1-0.3-1.4-0.8V69.2z M32.3,64.6v1.3c0,0.4,0.2,0.6,0.4,0.9
				c0.3,0.2,0.5,0.3,0.8,0.3c0.3,0,0.6-0.1,0.8-0.4c0.2-0.3,0.4-0.8,0.4-1.4c0-0.6-0.1-1-0.3-1.4c-0.2-0.3-0.5-0.5-0.9-0.5
				c-0.3,0-0.6,0.1-0.8,0.3C32.5,64,32.4,64.3,32.3,64.6z"/>
			<path class="st2" d="M37.4,67.6h-0.7v-4.7h0.6V64c0.2-0.5,0.5-0.9,0.7-1s0.5-0.2,0.7-0.2c0.1,0,0.2,0,0.3,0v0.7h-0.1
				c-0.4,0-0.7,0.1-1,0.4c-0.3,0.3-0.4,0.7-0.4,1.2V67.6z"/>
			<path class="st2" d="M41.3,67.7c-0.6,0-1.1-0.2-1.5-0.7c-0.4-0.5-0.5-1.1-0.5-1.8c0-0.7,0.2-1.3,0.6-1.8c0.4-0.4,0.9-0.7,1.5-0.7
				c0.6,0,1.2,0.2,1.5,0.7s0.6,1.1,0.6,1.8c0,0.7-0.2,1.3-0.6,1.8S41.9,67.7,41.3,67.7z M41.3,67.1c0.4,0,0.7-0.2,0.9-0.5
				c0.3-0.3,0.4-0.8,0.4-1.4c0-0.6-0.1-1.1-0.4-1.4c-0.3-0.3-0.6-0.4-0.9-0.4c-0.4,0-0.7,0.1-0.9,0.4c-0.3,0.3-0.4,0.8-0.4,1.4
				c0,0.7,0.1,1.2,0.4,1.5C40.6,67,41,67.1,41.3,67.1z"/>
			<path class="st2" d="M44.9,67.6h-0.4v-6.3h0.7v2.4c0.3-0.6,0.8-0.9,1.4-0.9c0.5,0,1,0.2,1.4,0.6s0.5,1,0.5,1.8
				c0,0.7-0.2,1.3-0.5,1.8s-0.8,0.7-1.4,0.7c-0.6,0-1.1-0.3-1.5-0.9L44.9,67.6z M45.3,65.8c0,0.5,0.2,0.8,0.4,1
				c0.3,0.2,0.5,0.3,0.8,0.3c0.4,0,0.7-0.2,0.9-0.5c0.2-0.3,0.3-0.8,0.3-1.3c0-0.6-0.1-1.1-0.3-1.4c-0.2-0.3-0.5-0.5-0.9-0.5
				c-0.3,0-0.6,0.1-0.8,0.4c-0.2,0.2-0.4,0.6-0.4,1V65.8z"/>
			<path class="st2" d="M53.3,67.6h-0.7c0-0.1-0.1-0.4-0.1-0.8c-0.3,0.6-0.9,1-1.6,1c-0.5,0-0.9-0.1-1.2-0.4c-0.3-0.3-0.4-0.6-0.4-1
				c0-0.5,0.2-0.9,0.6-1.2c0.4-0.3,1.1-0.5,2.1-0.5c0.1,0,0.3,0,0.6,0c0-0.4,0-0.6-0.1-0.8c-0.1-0.2-0.2-0.3-0.4-0.4
				s-0.4-0.1-0.7-0.1c-0.7,0-1.2,0.3-1.3,0.8l-0.7-0.1c0.2-0.9,0.9-1.3,2.1-1.3c0.6,0,1.1,0.1,1.4,0.4c0.3,0.3,0.4,0.8,0.4,1.5v2
				C53.2,67,53.2,67.3,53.3,67.6z M52.5,65.3c-0.3,0-0.5,0-0.7,0c-0.6,0-1,0.1-1.3,0.3C50.2,65.7,50,66,50,66.4
				c0,0.2,0.1,0.4,0.3,0.6c0.2,0.2,0.4,0.2,0.7,0.2c0.4,0,0.8-0.2,1.1-0.5s0.4-0.7,0.4-1.1C52.5,65.5,52.5,65.4,52.5,65.3z"/>
			<path class="st2" d="M58.3,67.6h-0.7v-3c0-0.4-0.1-0.7-0.3-0.9c-0.2-0.2-0.4-0.3-0.7-0.3c-0.4,0-0.7,0.1-0.9,0.4
				c-0.3,0.3-0.4,0.7-0.4,1.2v2.6h-0.7v-4.7h0.7v0.9c0.4-0.7,0.9-1,1.5-1c0.3,0,0.6,0.1,0.9,0.3c0.2,0.2,0.4,0.4,0.5,0.6
				c0.1,0.2,0.1,0.6,0.1,1.2V67.6z"/>
			<path class="st2" d="M61.9,67.1v0.6c-0.3,0-0.5,0.1-0.7,0.1c-0.9,0-1.4-0.5-1.4-1.4v-2.8h-0.8v-0.6h0.8l0-1.2l0.7-0.1v1.2h1v0.6
				h-1v2.9c0,0.5,0.3,0.7,0.8,0.7C61.5,67.2,61.7,67.2,61.9,67.1z"/>
			<path class="st2" d="M65.7,66.2l0.7,0.1c-0.1,0.4-0.4,0.7-0.7,1c-0.4,0.3-0.8,0.4-1.3,0.4c-0.6,0-1.2-0.2-1.6-0.7
				c-0.4-0.5-0.6-1-0.6-1.8c0-0.7,0.2-1.3,0.6-1.8c0.4-0.5,0.9-0.7,1.5-0.7c0.6,0,1.1,0.2,1.5,0.6c0.4,0.4,0.6,1.1,0.6,1.9H63
				c0,0.7,0.1,1.2,0.4,1.4c0.3,0.2,0.6,0.4,0.9,0.4C65,67.1,65.4,66.8,65.7,66.2z M65.6,64.8c0-0.3,0-0.5-0.1-0.7
				c-0.1-0.2-0.2-0.4-0.4-0.5c-0.2-0.1-0.4-0.2-0.7-0.2c-0.4,0-0.7,0.1-0.9,0.4c-0.3,0.3-0.4,0.6-0.4,1H65.6z"/>
			<path class="st2" d="M66.9,66.4l0.7-0.1c0.2,0.6,0.6,0.9,1.5,0.9c0.3,0,0.6-0.1,0.8-0.2c0.2-0.1,0.3-0.3,0.3-0.6
				c0-0.4-0.3-0.6-0.8-0.7l-1-0.2c-0.4-0.1-0.7-0.2-0.9-0.4c-0.2-0.2-0.3-0.5-0.3-0.9c0-0.4,0.2-0.7,0.5-1c0.3-0.3,0.7-0.4,1.3-0.4
				c1,0,1.6,0.4,1.9,1.2L70,64.1c-0.2-0.5-0.6-0.7-1.2-0.7c-0.3,0-0.5,0.1-0.7,0.2s-0.3,0.3-0.3,0.5c0,0.3,0.2,0.6,0.7,0.7l0.9,0.2
				c1,0.2,1.4,0.6,1.4,1.4c0,0.4-0.2,0.8-0.5,1s-0.8,0.4-1.4,0.4C67.8,67.7,67.1,67.3,66.9,66.4z"/>
		</g>
	</g>
</g>
</svg>
